<?xml version="1.0" standalone="no"?>
<!DOCTYPE svg PUBLIC "-//W3C//DTD SVG 20010904//EN"
 "http://www.w3.org/TR/2001/REC-SVG-20010904/DTD/svg10.dtd">
<svg version="1.0" xmlns="http://www.w3.org/2000/svg"
 width="3000.000000pt" height="2000.000000pt" viewBox="0 0 3000.000000 2000.000000"
 preserveAspectRatio="xMidYMid meet">
<metadata>
Created by potrace 1.16, written by Peter Selinger 2001-2019
</metadata>
<g transform="translate(0.000000,2000.000000) scale(0.100000,-0.100000)"
fill="#000000" stroke="none">
<path d="M5510 17634 c-417 -549 -479 -629 -488 -632 -5 -1 -154 198 -333 442
-178 245 -327 446 -330 446 -4 0 -10 -64 -13 -142 -13 -255 -65 -1059 -72
-1106 l-5 -33 -62 34 c-34 19 -239 134 -456 256 -216 122 -395 220 -397 218
-9 -8 320 -595 444 -790 41 -65 73 -119 71 -121 -3 -2 -645 -375 -836 -485
-35 -20 -63 -38 -63 -41 0 -5 1112 -181 1138 -180 6 0 12 -6 12 -13 0 -8 -34
-175 -74 -373 -41 -197 -88 -423 -104 -501 -18 -87 -25 -140 -18 -136 6 3 38
25 71 48 551 384 916 636 927 640 7 2 189 -169 413 -390 315 -311 401 -391
407 -377 4 9 41 244 83 522 42 278 81 532 86 566 l10 61 149 -58 c82 -31 261
-96 397 -143 136 -48 271 -95 298 -105 58 -22 363 -139 385 -148 22 -9 20 -8
-170 137 -96 73 -203 155 -237 182 -35 28 -63 47 -63 44 0 -3 88 -73 196 -157
107 -83 193 -153 191 -155 -2 -3 -46 12 -98 32 -52 20 -249 91 -439 159 -190
67 -405 146 -478 175 -73 28 -135 50 -138 47 -4 -4 -152 -935 -171 -1077 -3
-25 -8 -50 -12 -57 -4 -7 -166 146 -401 377 -217 214 -400 387 -407 385 -6 -2
-123 -81 -260 -176 -136 -95 -284 -197 -328 -228 -44 -30 -150 -104 -235 -163
-85 -59 -156 -105 -158 -104 -2 2 42 222 97 489 56 268 101 490 101 495 0 9
-143 33 -782 133 -186 30 -338 56 -338 59 0 3 71 46 158 95 176 101 691 400
709 412 9 6 -2 30 -38 83 -89 134 -343 575 -443 768 l-17 33 23 -12 c13 -7
185 -103 383 -214 198 -111 390 -219 428 -239 l67 -38 0 25 c0 13 7 120 15
238 30 434 55 846 55 927 0 45 3 82 8 82 4 -1 60 -74 124 -163 91 -125 351
-480 513 -701 8 -11 16 -18 18 -15 3 2 35 45 73 94 37 50 124 164 194 255 69
91 197 258 284 373 88 114 160 206 162 205 1 -2 44 -259 94 -573 51 -313 94
-571 95 -573 1 -1 105 2 231 7 l229 10 -226 -5 -225 -4 -31 193 c-17 105 -60
369 -94 585 -35 215 -66 392 -69 392 -3 -1 -106 -134 -230 -296z"/>
<path d="M8900 17650 c-270 -6 -314 -10 -385 -29 -355 -98 -610 -384 -664
-748 -11 -69 -15 -2295 -4 -2248 42 190 160 527 267 759 l36 78 0 547 c0 657
6 716 95 918 85 190 268 362 455 426 64 22 73 22 730 25 444 2 677 0 701 -7
49 -15 107 -73 137 -140 24 -52 26 -71 32 -246 6 -179 8 -193 32 -241 33 -62
94 -119 145 -133 53 -15 1933 -15 1987 0 52 14 126 90 150 154 14 39 20 91 25
240 7 178 9 193 33 240 14 28 39 62 55 77 62 59 53 58 641 58 606 0 593 1 749
-75 200 -98 354 -304 426 -570 l22 -80 2 -6405 3 -6405 -59 103 c-169 292
-567 784 -1112 1373 l-96 104 -136 1088 -136 1087 30 72 c103 250 179 600 179
820 0 100 -37 322 -71 422 -56 169 -171 351 -313 496 l-75 78 -56 238 c-31
132 -60 255 -65 275 l-10 36 -54 -8 c-30 -4 -59 -10 -65 -13 -9 -6 -471 -71
-931 -131 -294 -38 -622 -84 -625 -87 -2 -2 10 -185 26 -408 15 -223 29 -432
30 -465 1 -48 -16 -121 -86 -365 -133 -468 -436 -1535 -603 -2125 -83 -291
-205 -721 -271 -954 l-121 -424 -60 -986 c-33 -542 -76 -1240 -95 -1551 -19
-311 -39 -650 -45 -755 -5 -104 -13 -222 -16 -260 l-6 -71 83 -37 c160 -70
345 -95 505 -67 108 19 107 18 128 128 11 53 21 109 21 123 1 14 5 31 9 37 4
6 10 35 13 63 l6 51 68 -7 c66 -7 68 -6 74 17 54 232 282 1385 349 1763 100
566 147 978 163 1424 l6 184 101 148 c56 81 241 355 411 608 225 333 312 455
317 443 8 -19 94 -489 198 -1077 75 -429 87 -477 130 -570 64 -134 92 -163
350 -367 135 -106 257 -202 271 -213 15 -11 141 -110 280 -220 264 -209 437
-345 705 -555 87 -68 225 -176 305 -240 80 -63 191 -151 247 -195 l102 -80 0
-342 c0 -190 -5 -376 -11 -419 -44 -316 -239 -584 -499 -687 -130 -51 -107
-51 -1931 -43 l-1696 7 -12 -163 c-7 -90 -14 -173 -15 -185 l-3 -23 8151 2
c4483 1 7616 5 6961 9 -654 3 -3345 7 -5980 8 -4753 2 -4789 2 -4715 21 290
75 518 299 607 597 17 55 18 271 23 3933 l5 3875 905 6 c498 3 906 6 908 7 1
1 2 22 2 47 l0 45 37 -15 c20 -8 45 -13 55 -9 12 3 20 -1 24 -13 24 -76 104
-158 194 -200 102 -48 183 -64 329 -64 375 -1 741 120 1111 366 138 92 335
253 456 373 11 11 14 9 18 -10 7 -32 96 -752 96 -775 0 -12 -33 -38 -103 -81
-56 -34 -172 -105 -257 -158 -85 -53 -175 -108 -198 -123 -42 -25 -293 -190
-301 -197 -2 -2 -2 -6 0 -8 4 -4 183 97 259 145 14 9 68 42 120 74 166 102
177 109 268 168 49 31 94 57 100 57 6 0 12 6 15 13 2 6 7 -78 10 -188 16 -491
29 -752 44 -876 26 -214 38 -188 -102 -225 -66 -17 -154 -41 -195 -52 -41 -11
-151 -41 -243 -66 l-168 -45 -97 20 c-53 11 -137 29 -187 40 -385 84 -784 161
-865 166 -89 5 -99 4 -150 -20 -30 -15 -82 -51 -114 -81 -49 -46 -62 -53 -74
-43 -13 10 -14 -2 -8 -98 4 -61 11 -146 17 -190 5 -44 68 -595 140 -1225 l131
-1145 -27 -600 c-14 -330 -35 -773 -45 -985 -11 -212 -20 -451 -20 -531 0
-270 35 -760 85 -1182 14 -114 25 -212 25 -217 0 -6 36 -10 80 -10 l80 0 0
-87 c0 -49 3 -137 6 -198 l7 -110 749 3 c577 2 749 5 746 14 -5 14 -191 114
-293 158 -38 16 -65 30 -60 30 9 0 182 -40 475 -110 63 -15 117 -26 119 -24
16 15 -271 249 -431 353 -37 24 -65 47 -62 52 3 5 -2 9 -12 9 -17 0 -143 80
-134 84 3 2 -1 10 -8 18 -10 13 -9 30 4 92 16 73 18 76 45 76 24 0 30 5 38 38
5 20 16 62 24 92 8 30 117 357 242 725 125 369 323 956 442 1305 l215 635 41
1622 c22 892 38 1625 35 1628 -5 5 -356 -83 -402 -101 -10 -4 -15 16 -19 73
-19 237 -27 354 -32 498 -12 344 -26 671 -30 681 -2 6 57 49 131 95 75 46 150
97 167 112 l32 28 -55 -29 c-30 -16 -82 -45 -115 -66 -33 -20 -63 -36 -67 -36
-5 0 -8 15 -8 33 0 17 -18 192 -40 386 -22 195 -40 367 -40 381 0 33 40 57
200 120 l115 46 3 43 c2 28 -1 47 -10 52 -7 5 -77 9 -156 9 l-143 0 -187 -93
c-184 -91 -239 -117 -437 -205 -337 -150 -523 -213 -830 -280 -84 -19 -330
-51 -505 -66 l-55 -5 30 24 c17 13 77 59 135 101 125 92 223 184 255 239 13
22 58 153 100 290 42 138 79 252 81 254 2 2 34 9 71 15 78 13 78 14 51 116
-37 135 -64 327 -78 555 -17 272 -14 426 9 567 22 134 24 155 16 146 -7 -7
-38 -181 -175 -992 l-28 -170 55 -112 55 -113 -25 -78 c-14 -43 -46 -148 -72
-233 -60 -201 -62 -206 -106 -265 -57 -76 -168 -165 -408 -327 l-143 -97 -67
34 c-36 19 -92 45 -123 59 -64 28 -63 25 -99 204 -25 125 -26 122 19 122 94 0
315 152 517 355 86 87 198 215 187 215 -5 0 -43 -34 -83 -76 -90 -93 -290
-277 -343 -316 -21 -15 -43 -25 -49 -21 -5 3 -7 1 -4 -4 6 -9 -88 -78 -153
-113 -38 -20 -92 -30 -111 -19 -29 15 -139 170 -139 195 0 27 31 58 78 81 31
15 34 15 52 -4 65 -71 159 -87 226 -41 64 45 428 397 419 406 -3 3 4 12 15 19
11 8 18 18 15 23 -5 8 -149 -74 -225 -129 -94 -67 -150 -110 -200 -152 -80
-68 -125 -89 -190 -89 -46 0 -64 5 -101 31 l-44 31 33 -32 c19 -17 32 -32 30
-33 -1 -1 -25 -13 -52 -26 -31 -16 -53 -36 -63 -56 -18 -38 -13 -51 70 -166
52 -74 55 -80 75 -196 35 -196 32 -191 140 -242 l93 -45 -3 -40 -3 -41 -895
-5 c-492 -3 -898 -3 -903 1 -4 3 -6 644 -5 1425 l3 1419 490 5 490 5 -492 3
-493 2 -2 2358 -3 2357 -33 94 c-98 280 -302 472 -587 553 l-80 23 -2770 1
c-1523 0 -2907 -3 -3075 -6z"/>
<path d="M21547 16860 c-283 -48 -531 -231 -657 -485 -75 -151 -93 -230 -93
-405 0 -117 4 -160 21 -225 17 -62 73 -191 119 -275 1 -3 -13 -15 -32 -27 -34
-22 -36 -22 -96 -7 -33 9 -63 13 -66 11 -6 -6 64 -27 90 -27 11 0 17 -5 14
-12 -3 -10 -34 -13 -113 -12 -82 1 -98 0 -64 -7 25 -4 67 -8 94 -8 47 -1 49
-2 30 -17 -17 -14 -16 -14 9 0 15 9 27 14 27 10 0 -3 9 4 19 17 27 33 33 21
20 -40 -6 -28 -9 -57 -6 -64 2 -6 10 22 17 63 10 66 16 78 40 92 28 16 28 16
65 -33 85 -111 239 -226 373 -278 114 -43 215 -61 339 -59 l108 1 -140 7
c-111 6 -157 13 -225 35 -156 50 -277 124 -382 231 -76 79 -102 114 -92 123
20 17 235 161 241 161 4 0 16 8 27 19 12 10 95 68 186 130 149 101 237 164
202 146 -17 -9 -407 -271 -554 -371 -59 -41 -111 -74 -117 -74 -17 0 -100 183
-121 268 -92 369 54 750 371 962 143 95 274 137 469 150 l115 7 -95 0 c-52 0
-117 -3 -143 -7z"/>
<path d="M4785 16128 c-33 -19 -44 -41 -45 -85 0 -96 131 -128 175 -42 44 85
-48 174 -130 127z"/>
<path d="M5059 16111 c-21 -22 -29 -39 -29 -66 0 -51 44 -95 95 -95 51 0 95
44 95 95 0 51 -44 95 -95 95 -27 0 -44 -8 -66 -29z"/>
<path d="M5355 16116 c-32 -32 -40 -69 -25 -107 23 -54 81 -75 133 -47 34 18
46 40 46 83 0 22 -5 47 -12 56 -34 44 -105 52 -142 15z"/>
<path d="M8611 16089 c-58 -35 -142 -134 -236 -279 -58 -89 -216 -399 -264
-520 -19 -47 -42 -103 -52 -125 -35 -80 -111 -321 -145 -459 -43 -174 -56
-348 -30 -408 31 -73 92 -63 185 31 289 291 672 1209 675 1616 1 124 -16 165
-67 165 -17 0 -48 -10 -66 -21z m-93 -674 c29 -9 52 -19 52 -22 0 -3 -23 -75
-51 -160 -30 -89 -82 -214 -123 -296 -71 -142 -71 -142 -105 -140 -42 2 -98
46 -129 101 -47 84 -36 213 30 348 75 153 186 210 326 169z"/>
<path d="M8807 15735 c-28 -142 -94 -376 -143 -509 -60 -164 -145 -347 -157
-339 -6 3 -7 1 -3 -6 15 -24 -172 -334 -326 -540 -49 -66 -67 -110 -23 -56
221 268 328 441 472 765 72 159 158 448 188 632 22 126 15 169 -8 53z"/>
<path d="M18570 15774 c-147 -29 -328 -134 -416 -242 -54 -65 -145 -248 -169
-337 -37 -135 -27 -398 19 -555 12 -42 16 -45 49 -48 57 -5 93 -61 96 -150 1
-33 44 -72 80 -72 60 0 120 97 142 230 5 30 9 132 8 225 0 181 -8 224 -63 368
-52 135 -24 202 107 262 75 35 145 31 329 -18 158 -42 257 -56 329 -47 47 6
57 13 116 73 36 37 68 67 73 67 4 0 15 -9 25 -20 44 -49 42 2 -3 55 -105 127
-310 203 -562 210 -74 2 -146 1 -160 -1z"/>
<path d="M11682 15726 c-181 -44 -342 -201 -396 -385 -9 -30 -16 -69 -16 -87
0 -72 -53 -168 -155 -278 -63 -69 -111 -154 -121 -213 -9 -55 7 -119 62 -259
41 -103 47 -129 48 -194 0 -71 -2 -80 -52 -176 -47 -92 -52 -108 -52 -166 0
-90 32 -150 145 -268 50 -52 108 -116 129 -142 24 -30 59 -58 93 -75 52 -25
85 -30 226 -33 4 0 7 -88 7 -195 0 -176 2 -195 17 -195 16 0 198 27 508 75
277 44 348 56 357 61 5 3 9 38 8 77 0 74 9 290 13 292 1 1 23 0 50 -3 37 -3
47 -8 47 -22 0 -11 -9 -20 -22 -23 -18 -3 -18 -4 3 -3 22 2 30 -7 59 -63 51
-97 137 -183 228 -229 l76 -37 131 0 c112 0 138 3 190 23 111 43 196 95 269
163 134 125 174 260 126 422 -34 113 -23 134 95 196 89 46 115 83 115 160 -1
102 -38 154 -195 271 -207 153 -230 210 -185 440 24 122 25 158 5 235 -44 167
-180 306 -380 385 -226 91 -414 76 -520 -41 -20 -23 -41 -54 -46 -69 -10 -26
-12 -27 -45 -18 -95 26 -129 50 -249 171 -95 97 -134 129 -186 154 -121 60
-266 78 -387 49z"/>
<path d="M18597 15120 c-48 -9 -87 -30 -87 -47 0 -7 3 -13 8 -13 4 0 69 -2
145 -5 117 -3 137 -2 137 11 0 33 -130 68 -203 54z"/>
<path d="M10045 14883 c-10 -27 -21 -52 -25 -58 -5 -5 -26 -55 -48 -110 -21
-55 -87 -219 -146 -363 -59 -145 -105 -269 -103 -275 2 -6 41 -22 87 -36 l84
-26 -63 -73 -62 -72 20 -27 c12 -14 21 -40 21 -58 0 -43 -50 -139 -75 -144
-11 -2 -17 0 -13 4 10 10 -29 45 -52 45 -11 0 -26 -12 -34 -28 -13 -25 -13
-33 -1 -55 13 -25 7 -45 -9 -30 -23 23 -85 -10 -73 -40 3 -8 -4 -14 -21 -15
-34 -3 -36 -6 -22 -34 10 -21 10 -21 -3 -5 -15 18 -33 24 -22 8 5 -10 -18 -8
-54 4 -28 9 -52 -18 -58 -64 -4 -31 -11 -45 -24 -48 -11 -3 -19 -10 -19 -15 0
-5 24 -53 53 -106 30 -53 60 -115 68 -137 8 -22 16 -42 19 -45 6 -6 9 -30 16
-125 l6 -70 250 -33 c138 -18 253 -31 256 -28 3 3 8 75 12 159 5 102 13 167
24 197 9 24 14 50 11 58 -2 7 -1 11 4 8 5 -3 14 8 21 24 12 30 37 60 117 142
46 46 46 47 29 72 -20 31 -18 31 -59 9 -18 -9 -36 -17 -40 -18 -4 0 -11 -4
-15 -10 -4 -5 -16 -15 -27 -22 -11 -6 -19 -16 -17 -23 1 -6 -2 -9 -7 -6 -5 3
-15 -2 -22 -11 -12 -14 -12 -16 0 -8 10 5 12 4 7 -4 -4 -6 -11 -9 -16 -6 -4 3
-19 -10 -33 -29 -33 -42 -64 -53 -63 -21 1 16 38 54 126 129 103 87 129 106
149 101 86 -21 73 -33 152 133 l71 150 63 4 c85 5 148 44 192 117 18 30 34 59
36 64 2 7 35 2 90 -13 48 -12 89 -21 91 -19 7 8 58 170 55 173 -2 1 -31 19
-65 39 l-61 37 19 57 c32 94 4 199 -69 264 -30 26 -682 359 -703 359 -4 0 -15
-21 -25 -47z"/>
<path d="M19010 14844 c0 -16 61 -193 119 -343 31 -78 49 -137 43 -143 -4 -4
-35 -13 -67 -18 -76 -12 -81 -20 -12 -20 81 0 107 12 107 51 0 49 -187 518
-190 473z"/>
<path d="M23326 14784 c-11 -28 -7 -1122 4 -1129 7 -4 10 188 10 569 0 317 -2
576 -4 576 -2 0 -7 -7 -10 -16z"/>
<path d="M24936 14599 c-105 -36 -160 -80 -278 -223 -178 -214 -225 -236 -511
-236 -212 0 -359 -26 -481 -86 -108 -53 -211 -190 -222 -295 l-4 -44 13 46
c28 97 127 221 208 261 161 78 170 79 514 93 288 12 347 39 481 223 31 42 73
94 93 115 79 85 204 142 336 157 l70 7 -80 1 c-56 1 -97 -5 -139 -19z"/>
<path d="M7840 12416 l0 -1799 -52 7 c-29 4 -74 9 -99 12 l-46 6 -7 -48 c-5
-43 -72 -606 -192 -1619 -19 -165 -42 -354 -50 -420 -31 -258 -37 -316 -33
-320 3 -2 111 -17 242 -32 l237 -28 0 -394 0 -394 73 7 c39 4 98 9 129 13 l57
5 5 -33 c3 -19 16 -162 29 -319 l24 -285 2 683 1 682 23 -5 c38 -8 2178 -257
2181 -253 6 7 147 1259 144 1269 -2 7 -14 -73 -26 -177 -97 -813 -129 -1064
-135 -1071 -4 -4 -166 12 -360 35 -194 23 -824 98 -1402 166 -577 69 -1080
128 -1116 132 -37 4 -72 10 -79 14 -10 6 19 277 126 1186 76 649 139 1181 141
1183 3 4 130 -10 1103 -124 355 -42 654 -74 665 -73 11 2 -267 38 -618 80
-352 42 -641 79 -644 81 -2 3 -7 813 -10 1801 -4 988 -10 1796 -14 1796 -4 0
-34 -7 -66 -15 -149 -40 -186 -36 -217 23 -14 24 -15 -175 -16 -1772z"/>
<path d="M23318 13599 c-7 -5 428 -8 967 -7 573 1 934 4 870 9 -145 10 -1820
8 -1837 -2z"/>
<path d="M6155 13438 c-134 -15 -251 -74 -355 -178 -83 -83 -136 -176 -164
-286 -20 -78 -20 -222 -1 -299 54 -213 226 -389 440 -451 73 -21 227 -23 305
-5 168 40 331 168 410 322 50 97 64 163 64 289 0 99 -4 125 -26 188 -36 100
-82 174 -151 243 -141 141 -317 200 -522 177z m221 -238 l45 0 -3 -67 -3 -68
-57 -3 -58 -3 0 -49 0 -49 57 -3 57 -3 -2 -50 c-5 -83 -7 -87 -60 -84 l-47 3
-5 -189 -5 -190 -77 -3 -78 -3 0 190 0 191 -40 0 -40 0 0 70 0 70 40 0 40 0 0
65 c0 78 18 127 55 151 28 18 99 34 123 28 8 -2 34 -4 58 -4z"/>
<path d="M18000 13444 c0 -3 27 -36 61 -72 34 -37 81 -94 106 -127 105 -142
180 -232 272 -329 94 -98 295 -296 301 -296 4 0 37 39 75 88 72 90 174 202
184 202 4 0 11 -8 16 -19 45 -85 61 -110 90 -141 24 -26 34 -48 39 -85 33
-252 88 -663 96 -715 13 -81 149 -1174 152 -1223 2 -26 8 -37 19 -37 17 0 22
-43 -72 690 -57 453 -140 1041 -170 1210 -11 63 -33 149 -49 190 -16 41 -48
127 -71 190 -23 63 -46 119 -51 125 -11 12 -86 -65 -185 -190 -111 -141 -97
-137 -179 -52 -39 39 -127 124 -195 187 -68 63 -149 139 -181 169 -32 30 -55
58 -51 64 3 6 1 7 -5 3 -15 -9 -66 40 -56 55 4 8 3 9 -5 5 -8 -5 -35 15 -72
53 -59 60 -69 67 -69 55z"/>
<path d="M17585 12934 c-38 -9 -74 -20 -80 -26 -10 -11 -1 -10 170 10 92 11
194 0 247 -28 94 -48 188 -119 281 -210 98 -98 126 -113 61 -34 -21 26 -32 49
-28 56 4 7 4 10 -1 6 -4 -4 -33 14 -64 41 -90 77 -202 156 -251 176 -62 25
-240 30 -335 9z"/>
<path d="M11295 12708 c-56 -87 -114 -161 -201 -253 -67 -71 -144 -157 -171
-190 -26 -33 -55 -67 -64 -75 -8 -8 -45 -55 -82 -104 l-66 -88 22 -40 c12 -22
50 -69 85 -104 34 -34 62 -66 62 -69 0 -25 -121 82 -159 140 -15 22 -32 41
-40 43 -7 1 -10 -2 -7 -7 3 -5 -18 -45 -47 -88 -128 -186 -255 -449 -321 -662
-15 -46 -25 -85 -24 -87 5 -4 335 107 472 159 66 25 123 44 126 42 4 -2 12
-30 19 -62 21 -92 91 -259 91 -216 0 6 -10 32 -22 59 -51 115 -70 211 -75 379
-6 182 9 303 53 450 15 50 27 100 27 112 -1 13 2 21 6 19 3 -3 15 17 25 42 22
53 71 165 90 202 71 141 236 426 277 479 11 13 19 28 19 32 0 27 -25 -4 -95
-113z"/>
<path d="M12428 12338 c-34 -30 -47 -57 -69 -143 -25 -96 -25 -122 4 -130 22
-7 138 -56 146 -62 2 -2 2 -6 -1 -9 -3 -3 -32 6 -64 19 -81 33 -111 40 -116
24 -9 -24 -8 -234 1 -332 10 -105 19 -181 76 -695 79 -716 87 -774 110 -845
10 -28 28 -64 41 -81 13 -17 20 -34 17 -38 -10 -9 23 -7 51 4 39 14 105 88
118 131 9 30 8 69 -1 167 l-12 127 71 240 c40 132 76 244 80 248 4 5 15 -24
25 -65 50 -210 129 -504 137 -513 7 -7 8 -3 4 10 -8 28 -199 854 -247 1070
-23 99 -67 309 -99 467 l-57 288 -64 65 c-75 76 -109 88 -151 53z"/>
<path d="M13647 12043 c-4 -120 -7 -768 -7 -1440 l0 -1223 363 2 c320 1 341 2
182 9 -99 3 -258 7 -352 8 l-173 1 0 1425 0 1425 428 3 427 2 -431 3 -431 2
-6 -217z"/>
<path d="M22880 11851 c-151 -37 -285 -74 -298 -82 -21 -12 -41 -50 -95 -169
-8 -19 -47 -105 -85 -190 -38 -85 -122 -272 -187 -415 -64 -143 -134 -298
-155 -345 -21 -47 -52 -115 -68 -151 -16 -37 -33 -69 -38 -72 -17 -10 -205
-16 -679 -23 -264 -3 -487 -10 -495 -15 -13 -7 -12 -8 3 -9 21 0 22 -28 1 -58
-14 -21 -23 -22 -128 -22 -109 0 -117 -1 -192 -36 -115 -52 -123 -56 -309
-139 -93 -41 -198 -88 -232 -103 l-62 -27 -1 -50 c0 -27 4 -56 9 -64 7 -11
157 -12 914 -6 l905 8 60 81 c32 44 71 100 85 122 81 131 189 98 117 -35 -16
-31 -7 -36 25 -15 18 12 48 62 94 158 73 153 106 199 155 220 24 10 35 24 49
64 24 70 65 112 110 112 68 0 71 -35 17 -204 -42 -132 -40 -143 18 -109 26 15
54 67 178 333 81 173 171 365 200 425 332 700 393 837 382 861 -6 13 -14 24
-17 23 -3 0 -130 -31 -281 -68z"/>
<path d="M26534 11350 c-97 -62 -91 -289 9 -350 68 -42 158 -17 198 53 20 35
24 55 23 117 0 89 -26 150 -77 180 -42 26 -112 26 -153 0z m146 -29 c14 -10
33 -38 42 -62 46 -121 -5 -250 -100 -253 -73 -1 -116 48 -128 146 -17 148 85
242 186 169z"/>
<path d="M26160 11324 c-42 -36 -60 -84 -60 -163 0 -152 109 -242 220 -182 79
42 106 184 55 287 -30 61 -67 84 -133 84 -40 0 -57 -6 -82 -26z m158 -26 c13
-13 31 -37 38 -55 21 -48 18 -146 -5 -191 -46 -89 -167 -81 -207 14 -19 45
-18 157 1 195 36 68 119 86 173 37z"/>
<path d="M13930 8446 c-47 -19 -133 -51 -192 -72 -59 -21 -110 -44 -112 -51
-3 -7 -1 -46 5 -86 5 -39 10 -79 11 -87 0 -8 8 -88 18 -178 l19 -163 38 -34
c21 -18 42 -31 47 -28 5 4 6 1 2 -5 -7 -11 120 -129 135 -125 5 2 8 -1 6 -5
-3 -11 174 -178 185 -174 5 1 7 -2 4 -7 -3 -5 10 -19 31 -31 29 -17 38 -18 44
-8 13 19 11 52 -3 67 -10 11 -10 13 0 7 8 -5 12 1 12 20 0 26 1 27 19 10 11
-10 24 -15 30 -11 6 3 9 0 6 -7 -3 -7 8 -22 25 -33 16 -11 30 -25 30 -32 0 -6
6 -14 13 -16 10 -4 10 -6 0 -6 -10 -1 -13 -36 -13 -142 0 -91 4 -138 10 -134
6 3 10 1 10 -4 0 -19 38 -12 65 12 18 16 28 39 36 80 6 33 8 66 5 74 -3 8 -1
11 4 8 10 -6 12 15 15 150 1 28 -3 56 -8 63 -7 8 -6 25 1 50 47 163 53 295 18
418 -17 58 -68 132 -88 126 -4 -1 -7 4 -5 10 1 7 -4 12 -11 10 -8 -1 -11 2 -7
8 8 13 -53 72 -67 64 -7 -4 -8 -2 -4 5 10 16 -22 64 -36 55 -6 -4 -8 -3 -5 3
4 6 -8 24 -26 40 -17 17 -63 67 -102 112 -38 44 -72 81 -75 81 -3 -1 -43 -16
-90 -34z"/>
<path d="M3585 7639 c-330 -43 -634 -258 -785 -559 -236 -468 -83 -1040 355
-1326 180 -117 348 -166 570 -166 131 1 234 18 349 59 96 34 136 55 238 125
148 101 260 236 344 412 59 127 85 235 92 384 7 181 -17 312 -86 467 -187 418
-622 662 -1077 604z m485 -478 c114 -36 186 -121 209 -245 14 -77 14 -525 0
-601 -15 -82 -50 -147 -103 -190 -72 -59 -137 -74 -354 -81 -371 -12 -512 16
-592 118 -71 89 -75 114 -75 458 1 295 1 307 24 363 31 78 102 149 173 173 83
28 156 33 413 29 211 -2 248 -5 305 -24z"/>
<path d="M3463 7070 c-71 -10 -107 -27 -144 -67 -50 -53 -54 -85 -54 -388 0
-308 6 -344 63 -397 57 -54 102 -61 392 -62 183 0 278 3 307 12 53 16 98 53
126 106 21 39 22 55 25 308 4 307 -3 360 -51 415 -61 69 -91 76 -362 79 -132
2 -268 -1 -302 -6z m607 -100 c24 -24 26 -77 3 -102 -25 -28 -87 -24 -107 7
-23 34 -20 62 9 90 29 30 68 32 95 5z m-212 -97 c143 -73 195 -244 120 -393
-139 -273 -547 -172 -548 136 0 223 228 360 428 257z"/>
<path d="M3644 6781 c-64 -29 -97 -81 -102 -155 -4 -74 16 -118 75 -159 70
-50 157 -46 224 10 43 36 62 79 61 139 -1 81 -39 137 -114 169 -49 20 -94 19
-144 -4z"/>
<path d="M6087 7240 c-290 -26 -529 -49 -530 -51 -2 -2 22 -292 54 -644 31
-352 72 -809 90 -1015 17 -206 33 -377 35 -379 4 -5 21 -3 1159 99 489 44 902
80 917 80 l28 0 0 -1774 c0 -1542 2 -1785 15 -1861 60 -340 323 -628 655 -714
l75 -20 -1455 -2 c-800 -1 -1988 -5 -2640 -8 -862 -5 -318 -7 1995 -8 3583 -1
3251 -10 2653 69 -211 27 -248 34 -248 48 0 9 8 24 18 32 44 38 282 143 426
188 48 15 61 4 78 -68 13 -54 27 -68 30 -29 2 41 -3 71 -20 99 l-16 28 -281 0
c-326 0 -375 7 -511 74 -237 117 -401 369 -444 681 -8 56 -10 563 -8 1690 l3
1610 63 3 c34 2 62 5 62 7 0 20 -61 675 -65 690 -7 37 6 -167 29 -420 15 -174
19 -252 12 -257 -6 -4 -24 -8 -40 -8 -29 0 -2205 -191 -2381 -209 -49 -5 -91
-8 -93 -6 -5 5 -183 2007 -179 2011 2 2 251 27 553 54 607 55 623 57 544 57
-30 0 -292 -21 -583 -47z"/>
</g>
</svg>
